<?xml version="1.0" encoding="UTF-8" standalone="no"?> <svg xmlns="http://www.w3.org/2000/svg" viewBox="0 0 64 64"><g id="Layer_19" data-name="Layer 19"><path d="M60.33,24.6,43.65,9.88a.51.51,0,0,0-.71,0l-2.23,2.52a.52.52,0,0,0-.12.36.51.51,0,0,0,.17.35l9,8H8.45a.5.5,0,0,0-.5.5V25a.5.5,0,0,0,.5.5H60a.5.5,0,0,0,.33-.88Z"/><path d="M55.55,38.52H4a.5.5,0,0,0-.33.88L20.35,54.12a.5.5,0,0,0,.33.12h0a.51.51,0,0,0,.34-.17l2.23-2.52a.52.52,0,0,0,.12-.36.51.51,0,0,0-.17-.35l-9-8H55.55a.5.5,0,0,0,.5-.5V39A.5.5,0,0,0,55.55,38.52Z"/></g></svg>